<?xml version="1.0" encoding="utf-8"?>
<!-- Generator: Adobe Illustrator 26.5.0, SVG Export Plug-In . SVG Version: 6.00 Build 0)  -->
<svg version="1.1" id="Layer_1"
	xmlns="http://www.w3.org/2000/svg"
	xmlns:xlink="http://www.w3.org/1999/xlink" x="0px" y="0px" viewBox="0 0 24 24" style="enable-background:new 0 0 24 24;" xml:space="preserve">
	<style type="text/css">
	.st0{fill:none;stroke:#F56A01;strokeWidth:1.5;strokeLinecap:round;strokeLinejoin:round;stroke-miterlimit:10;}
	</style>
	<path className="st0" d="M16.2,10c0,0-0.2,1-3.2,5c-2.9,3.8,1.3,6.6,1.8,7h0.1C15.5,21.5,23.1,16.7,16.2,10z"/>
	<path className="st0" d="M13.8,7.8c0-2.3-0.9-4.4-1.8-5.6c-0.3-0.3-0.8-0.2-0.9,0.2c-0.4,1.5-1.6,4.7-4.5,8.5c-3.7,4.8-0.3,10,3.2,11
	c1.9,0.5-0.5-1-0.8-4.1C8.7,13.9,13.8,11,13.8,7.8z"/>
</svg>
